<?xml version="1.0" encoding="UTF-8" standalone="no"?><!DOCTYPE svg PUBLIC "-//W3C//DTD SVG 1.1//EN" "http://www.w3.org/Graphics/SVG/1.1/DTD/svg11.dtd"><svg width="100%" height="100%" viewBox="0 0 24 24" version="1.1" xmlns="http://www.w3.org/2000/svg" xmlns:xlink="http://www.w3.org/1999/xlink" xml:space="preserve" xmlns:serif="http://www.serif.com/" style="fill-rule:evenodd;clip-rule:evenodd;stroke-linejoin:round;stroke-miterlimit:2;"><g id="Calque-1" serif:id="Calque 1"><g id="release_brushup_live2d_190213"><g id="g923"><g id="g925"><g id="g1356"><g id="g939"><path id="path941" d="M2.86,6.641c-0.058,-0.014 -0.105,0.022 -0.105,0.082l0,10.287c0,0.059 0.042,0.083 0.093,0.053l1.991,-1.165c0.051,-0.03 0.093,-0.103 0.093,-0.163l0,-8.47c0,-0.06 -0.047,-0.12 -0.105,-0.134l-1.967,-0.49Z" style="fill:#fff;fill-rule:nonzero;"/></g><g id="g943"><path id="path945" d="M6.272,3.153c-0.074,-0.029 -0.134,0.011 -0.134,0.091l0,17.563c0,0.079 0.054,0.108 0.12,0.064l3.649,-2.443c0.066,-0.044 0.119,-0.144 0.119,-0.224l0,-13.409c0,-0.079 -0.06,-0.168 -0.134,-0.197l-3.621,-1.445Z" style="fill:#fff;fill-rule:nonzero;"/></g><g id="g947"><path id="path949" d="M21.245,18.536c0,0.119 -0.077,0.276 -0.17,0.349l-6.484,5.078c-0.094,0.073 -0.17,0.036 -0.17,-0.083l0,-23.708c0,-0.119 0.082,-0.164 0.183,-0.101l6.458,4.063c0.101,0.063 0.183,0.212 0.183,0.331l0,14.071Z" style="fill:#fff;fill-rule:nonzero;"/></g></g></g></g></g></g></svg>