<?xml version="1.0" encoding="UTF-8" standalone="no"?><!DOCTYPE svg PUBLIC "-//W3C//DTD SVG 1.1//EN" "http://www.w3.org/Graphics/SVG/1.1/DTD/svg11.dtd"><svg width="100%" height="100%" viewBox="0 0 24 24" version="1.1" xmlns="http://www.w3.org/2000/svg" xmlns:xlink="http://www.w3.org/1999/xlink" xml:space="preserve" xmlns:serif="http://www.serif.com/" style="fill-rule:evenodd;clip-rule:evenodd;stroke-linejoin:round;stroke-miterlimit:2;"><g id="Spine_Logo"><g id="i"><path d="M7.157,2.207c0.066,2.004 1.454,3.117 4.221,3.55c2.345,0.368 4.46,0.181 5.15,-1.828c1.345,-3.918 -1.848,-2.943 -4.614,-3.378c-2.767,-0.435 -4.864,-1.564 -4.758,1.657Z" style="fill:#fff;fill-rule:nonzero;"/><path d="M7.989,10.437c0.257,1.496 1.651,2.354 3.786,2.297c2.135,-0.059 3.727,-0.892 3.948,-2.507c0.409,-2.988 -1.945,-1.833 -4.08,-1.775c-2.136,0.059 -4.161,-0.951 -3.654,1.985Z" style="fill:#fff;fill-rule:nonzero;"/><path d="M10.766,17.289c0.424,1.117 1.587,1.59 3.159,1.253c1.57,-0.335 2.656,-0.855 2.568,-2.129c-0.159,-2.357 -1.712,-1.616 -3.282,-1.279c-1.572,0.334 -3.273,-0.038 -2.445,2.155Z" style="fill:#fff;fill-rule:nonzero;"/><path d="M12.114,22.51c0.124,0.943 0.939,1.499 2.216,1.489c1.279,-0.011 2.247,-0.515 2.412,-1.525c0.307,-1.871 -1.123,-1.175 -2.401,-1.164c-1.279,0.01 -2.47,-0.651 -2.227,1.2Z" style="fill:#fff;fill-rule:nonzero;"/></g></g></svg>