<svg width="1200" height="680" viewBox="0 0 1200 680" fill="none" xmlns="http://www.w3.org/2000/svg">
  <rect width="1200" height="680" rx="32" fill="#0F0F0F"/>
  <rect x="92" y="98" width="1016" height="470" rx="24" fill="#111111" stroke="#FFFFFF22"/>
  <path d="M170 472C251 424 311 340 392 316C468 293 537 320 622 287C675 267 726 221 789 216C860 211 928 245 1030 188" stroke="#F5F5F5" stroke-width="6" stroke-linecap="round"/>
  <circle cx="170" cy="472" r="10" fill="#F5F5F5"/>
  <circle cx="392" cy="316" r="10" fill="#F5F5F5"/>
  <circle cx="622" cy="287" r="10" fill="#F5F5F5"/>
  <circle cx="789" cy="216" r="10" fill="#F5F5F5"/>
  <circle cx="1030" cy="188" r="10" fill="#F5F5F5"/>
  <path d="M170 520V160" stroke="#FFFFFF22" stroke-width="2"/>
  <path d="M130 480H1030" stroke="#FFFFFF22" stroke-width="2"/>
  <text x="130" y="138" fill="#F5F5F5" font-family="Arial" font-size="28">Decision Time</text>
  <text x="1030" y="520" fill="#F5F5F5" font-family="Arial" font-size="28">Number of Choices</text>
</svg>