<?xml version="1.0" encoding="UTF-8" standalone="no"?><!DOCTYPE svg PUBLIC "-//W3C//DTD SVG 1.1//EN" "http://www.w3.org/Graphics/SVG/1.1/DTD/svg11.dtd"><svg width="100%" height="100%" viewBox="0 0 240 240" version="1.1" xmlns="http://www.w3.org/2000/svg" xmlns:xlink="http://www.w3.org/1999/xlink" xml:space="preserve" xmlns:serif="http://www.serif.com/" style="fill-rule:evenodd;clip-rule:evenodd;stroke-linejoin:round;stroke-miterlimit:2;"><g><path d="M23.381,172.114l0,-115.526c0,-9.611 7.803,-17.414 17.414,-17.414l37.637,0c9.611,0 10.234,0.253 25.259,15.277l96.397,0c9.124,0 16.531,7.407 16.531,16.531l0,101.131c0,9.124 -7.407,16.531 -16.531,16.531l-160.176,0c-9.124,0 -16.531,-7.407 -16.531,-16.531Z" style="fill:#5d9cbf;"/><rect x="27.214" y="58.273" width="185.806" height="75.456" style="fill:#e2e2e2;"/><path d="M215.922,67.959l-7.707,75.062l-184.835,-18.978l7.707,-75.062l184.835,18.978Z" style="fill:#fff;"/><path d="M216.619,83.163l0,101.131c0,9.124 -7.407,16.531 -16.531,16.531l-160.176,0c-9.124,0 -16.531,-7.407 -16.531,-16.531l0,-101.131c0,-9.124 7.407,-16.531 16.531,-16.531l160.176,0c9.124,0 16.531,7.407 16.531,16.531Z" style="fill:#64c5fa;"/></g></svg>