<?xml version="1.0" encoding="UTF-8" standalone="no"?><!DOCTYPE svg PUBLIC "-//W3C//DTD SVG 1.1//EN" "http://www.w3.org/Graphics/SVG/1.1/DTD/svg11.dtd"><svg width="100%" height="100%" viewBox="0 0 240 240" version="1.1" xmlns="http://www.w3.org/2000/svg" xmlns:xlink="http://www.w3.org/1999/xlink" xml:space="preserve" xmlns:serif="http://www.serif.com/" style="fill-rule:evenodd;clip-rule:evenodd;stroke-linejoin:round;stroke-miterlimit:2;"><g><path d="M216.619,83.163l0,101.131c0,9.124 -7.407,16.531 -16.531,16.531l-160.176,0c-9.124,0 -16.531,-7.407 -16.531,-16.531l0,-101.131c0,-9.124 7.407,-16.531 16.531,-16.531l160.176,0c9.124,0 16.531,7.407 16.531,16.531Z" style="fill:#75aac3;"/><clipPath id="_clip1"><rect x="59.911" y="67.349" width="133.476" height="133.476"/></clipPath><g clip-path="url(#_clip1)"><rect x="59.911" y="67.349" width="133.476" height="133.476" style="fill:none;"/><g><path d="M116.972,87.771c6.741,2.269 -13.014,13.414 -0.667,20.889c6.941,4.205 22.09,-14.816 29.699,-19.087c6.474,-3.604 17.819,-4.338 23.559,8.209c7.274,15.884 0.934,57.195 -25.294,73.812c-26.495,16.685 -59.864,8.209 -71.41,-17.752c-13.414,-30.232 20.822,-74.013 44.114,-66.071Zm8.075,43.046c4.872,10.945 31.367,-3.337 25.294,-18.687c-3.938,-9.944 -29.899,8.342 -25.294,18.687Z" style="fill:#52788a;fill-rule:nonzero;"/></g></g></g></svg>