<?xml version="1.0" encoding="UTF-8" standalone="no"?><!DOCTYPE svg PUBLIC "-//W3C//DTD SVG 1.1//EN" "http://www.w3.org/Graphics/SVG/1.1/DTD/svg11.dtd"><svg width="100%" height="100%" viewBox="0 0 240 240" version="1.1" xmlns="http://www.w3.org/2000/svg" xmlns:xlink="http://www.w3.org/1999/xlink" xml:space="preserve" xmlns:serif="http://www.serif.com/" style="fill-rule:evenodd;clip-rule:evenodd;stroke-linecap:round;stroke-linejoin:round;stroke-miterlimit:10;"><g><path d="M216.619,83.163l0,101.131c0,9.124 -7.407,16.531 -16.531,16.531l-160.176,0c-9.124,0 -16.531,-7.407 -16.531,-16.531l0,-101.131c0,-9.124 7.407,-16.531 16.531,-16.531l160.176,0c9.124,0 16.531,7.407 16.531,16.531Z" style="fill:#b5f5ff;"/><rect x="101.114" y="165.205" width="12.59" height="9.443" style="fill:none;stroke:#9cd2db;stroke-width:6.3px;"/><path d="M91.672,95.958l9.443,0l0,9.443l-9.443,0l0,-9.443Z" style="fill:none;stroke:#9cd2db;stroke-width:6.3px;"/><path d="M138.886,95.958l9.443,0l0,9.443l-9.443,0l0,-9.443Z" style="fill:none;stroke:#9cd2db;stroke-width:6.3px;"/><rect x="126.295" y="165.205" width="12.59" height="9.443" style="fill:none;stroke:#9cd2db;stroke-width:6.3px;"/><path d="M157.771,136.877l0,-9.443l-9.443,0l0,-9.443l-9.443,0l0,-12.59l-9.443,0l0,12.59l-18.886,0l0,-12.59l-9.443,0l0,12.59l-9.443,0l0,9.443l-9.443,0l0,9.443l-9.443,0l0,28.328l9.443,0l0,-18.886l9.443,0l0,18.886l9.443,0l0,-9.443l37.771,0l0,9.443l9.443,0l0,-18.886l9.443,0l0,18.886l9.443,0l0,-28.328l-9.443,0Z" style="fill:none;fill-rule:nonzero;stroke:#9cd2db;stroke-width:6.3px;"/><rect x="101.114" y="133.729" width="9.443" height="9.443" style="fill:none;stroke:#9cd2db;stroke-width:6.3px;"/><rect x="129.443" y="133.729" width="9.443" height="9.443" style="fill:none;stroke:#9cd2db;stroke-width:6.3px;"/></g></svg>