<?xml version="1.0" encoding="UTF-8" standalone="no"?><!DOCTYPE svg PUBLIC "-//W3C//DTD SVG 1.1//EN" "http://www.w3.org/Graphics/SVG/1.1/DTD/svg11.dtd"><svg width="100%" height="100%" viewBox="0 0 240 240" version="1.1" xmlns="http://www.w3.org/2000/svg" xmlns:xlink="http://www.w3.org/1999/xlink" xml:space="preserve" xmlns:serif="http://www.serif.com/" style="fill-rule:evenodd;clip-rule:evenodd;stroke-linejoin:round;stroke-miterlimit:2;"><g><path d="M216.619,83.163l0,101.131c0,9.124 -7.407,16.531 -16.531,16.531l-160.176,0c-9.124,0 -16.531,-7.407 -16.531,-16.531l0,-101.131c0,-9.124 7.407,-16.531 16.531,-16.531l160.176,0c9.124,0 16.531,7.407 16.531,16.531Z" style="fill:#80d1d3;"/><path d="M105.183,107.129l0,8.971c0,2.405 -1.953,4.357 -4.357,4.357l-8.971,0c-2.405,0 -4.357,-1.953 -4.357,-4.357l0,-8.971c0,-2.405 1.953,-4.357 4.357,-4.357l8.971,0c2.405,0 4.357,1.953 4.357,4.357Zm23.666,0l0,8.971c0,2.405 -1.953,4.357 -4.357,4.357l-8.971,0c-2.405,0 -4.357,-1.953 -4.357,-4.357l0,-8.971c0,-2.405 1.953,-4.357 4.357,-4.357l8.971,0c2.405,0 4.357,1.953 4.357,4.357Zm23.653,0l0,8.971c0,2.405 -1.953,4.357 -4.357,4.357l-8.971,0c-2.405,0 -4.357,-1.953 -4.357,-4.357l0,-8.971c0,-2.405 1.953,-4.357 4.357,-4.357l8.971,0c2.405,0 4.357,1.953 4.357,4.357Zm-47.319,23.649l0,8.971c0,2.405 -1.953,4.357 -4.357,4.357l-8.971,0c-2.405,0 -4.357,-1.953 -4.357,-4.357l0,-8.971c0,-2.405 1.953,-4.357 4.357,-4.357l8.971,0c2.405,0 4.357,1.953 4.357,4.357Zm23.666,0l0,8.971c0,2.405 -1.953,4.357 -4.357,4.357l-8.971,0c-2.405,0 -4.357,-1.953 -4.357,-4.357l0,-8.971c0,-2.405 1.953,-4.357 4.357,-4.357l8.971,0c2.405,0 4.357,1.953 4.357,4.357Zm23.653,0l0,8.971c0,2.405 -1.953,4.357 -4.357,4.357l-8.971,0c-2.405,0 -4.357,-1.953 -4.357,-4.357l0,-8.971c0,-2.405 1.953,-4.357 4.357,-4.357l8.971,0c2.405,0 4.357,1.953 4.357,4.357Zm-47.319,23.654l0,8.971c0,2.405 -1.953,4.357 -4.357,4.357l-8.971,0c-2.405,0 -4.357,-1.953 -4.357,-4.357l0,-8.971c0,-2.405 1.953,-4.357 4.357,-4.357l8.971,0c2.405,0 4.357,1.953 4.357,4.357Zm23.666,0l0,8.971c0,2.405 -1.953,4.357 -4.357,4.357l-8.971,0c-2.405,0 -4.357,-1.953 -4.357,-4.357l0,-8.971c0,-2.405 1.953,-4.357 4.357,-4.357l8.971,0c2.405,0 4.357,1.953 4.357,4.357Zm23.653,0l0,8.971c0,2.405 -1.953,4.357 -4.357,4.357l-8.971,0c-2.405,0 -4.357,-1.953 -4.357,-4.357l0,-8.971c0,-2.405 1.953,-4.357 4.357,-4.357l8.971,0c2.405,0 4.357,1.953 4.357,4.357Z" style="fill:#62afb1;"/></g></svg>