<?xml version="1.0" encoding="UTF-8" standalone="no"?><!DOCTYPE svg PUBLIC "-//W3C//DTD SVG 1.1//EN" "http://www.w3.org/Graphics/SVG/1.1/DTD/svg11.dtd"><svg width="100%" height="100%" viewBox="0 0 240 240" version="1.1" xmlns="http://www.w3.org/2000/svg" xmlns:xlink="http://www.w3.org/1999/xlink" xml:space="preserve" xmlns:serif="http://www.serif.com/" style="fill-rule:evenodd;clip-rule:evenodd;stroke-linejoin:round;stroke-miterlimit:2;"><g><path d="M116.114,188.446c-1.179,0.252 -2.281,0.404 -2.729,0.404l-59.722,9.744c-1.15,0 -11.691,0.089 -11.691,0.089l0,-3.543l71.413,-13.553l0,-27.77c0,-1.784 1.482,-3.233 3.308,-3.233l6.616,0c1.826,0 3.308,1.449 3.308,3.233l0,27.77l71.413,13.553l0,3.543c0,0 -10.54,-0.089 -11.691,-0.089l-59.722,-9.744c-0.448,0 -1.55,-0.152 -2.729,-0.404c-0.188,0.032 -0.381,0.049 -0.579,0.049l-6.616,0c-0.197,0 -0.391,-0.017 -0.579,-0.049Z" style="fill:#8a8a8a;"/><path d="M116.114,184.903c-1.179,0.252 -2.281,0.404 -2.729,0.404l-59.722,9.744c-1.15,0 -11.691,0.089 -11.691,0.089c0,-1.124 3.834,-2.392 4.984,-2.392l66.429,-14.704l0,-27.77c0,-1.784 1.482,-3.233 3.308,-3.233l6.616,0c1.826,0 3.308,1.449 3.308,3.233l0,27.77l66.429,14.704c1.15,0 4.984,1.267 4.984,2.392c0,0 -10.54,-0.089 -11.691,-0.089l-59.722,-9.744c-0.448,0 -1.55,-0.152 -2.729,-0.404c-0.188,0.032 -0.381,0.049 -0.579,0.049l-6.616,0c-0.197,0 -0.391,-0.017 -0.579,-0.049Z" style="fill:#b3b3b3;"/><path d="M121.392,152.575l0,34.618c0,0.384 -0.312,0.696 -0.696,0.696l-1.392,0c-0.384,0 -0.696,-0.312 -0.696,-0.696l0,-34.618c0,-0.384 0.312,-0.696 0.696,-0.696l1.392,0c0.384,0 0.696,0.312 0.696,0.696Z" style="fill:#8a8a8a;"/><path d="M219.028,43.783l0,108.48c0,1.361 -1.105,2.465 -2.465,2.465l-193.125,0c-1.361,0 -2.465,-1.105 -2.465,-2.465l0,-108.48c0,-1.361 1.105,-2.465 2.465,-2.465l193.125,0c1.361,0 2.465,1.105 2.465,2.465Z"/><path d="M216.705,46.251l0,103.543c0,1.299 -1.054,2.353 -2.353,2.353l-188.704,0c-1.299,0 -2.353,-1.054 -2.353,-2.353l0,-103.543c0,-1.299 1.054,-2.353 2.353,-2.353l188.704,0c1.299,0 2.353,1.054 2.353,2.353Z" style="fill:#fff;"/><path d="M219.028,148.962l0,3.844c0,1.061 -0.861,1.922 -1.922,1.922l-194.212,0c-1.061,0 -1.922,-0.861 -1.922,-1.922l0,-3.844l198.056,0Z" style="fill:#3d3d3d;"/></g></svg>