<?xml version="1.0" encoding="UTF-8" standalone="no"?><!DOCTYPE svg PUBLIC "-//W3C//DTD SVG 1.1//EN" "http://www.w3.org/Graphics/SVG/1.1/DTD/svg11.dtd"><svg width="100%" height="100%" viewBox="0 0 240 240" version="1.1" xmlns="http://www.w3.org/2000/svg" xmlns:xlink="http://www.w3.org/1999/xlink" xml:space="preserve" xmlns:serif="http://www.serif.com/" style="fill-rule:evenodd;clip-rule:evenodd;stroke-linejoin:round;stroke-miterlimit:2;"><g><path d="M64.789,70.811l-0.418,0c-0.379,0 -0.686,-0.308 -0.686,-0.686l0,-11.312c0,-0.379 0.308,-0.686 0.686,-0.686l0.418,0l0,-16.376c0,-8.821 7.162,-15.983 15.983,-15.983l73.066,0c8.821,0 15.983,7.162 15.983,15.983l0,16.376l0.433,0c0.455,0 0.824,0.369 0.824,0.824l0,30.908c0,0.455 -0.369,0.824 -0.824,0.824l-0.433,0l0,111.359c0,8.821 -7.162,15.983 -15.983,15.983l-73.066,0c-8.821,0 -15.983,-7.162 -15.983,-15.983l0,-112.627l-0.418,0c-0.379,0 -0.686,-0.308 -0.686,-0.686l0,-11.312c0,-0.379 0.308,-0.686 0.686,-0.686l0.418,0l0,-5.919Zm101.22,-28.922c0,-6.619 -5.374,-11.992 -11.992,-11.992l-73.365,0c-6.619,0 -11.992,5.374 -11.992,11.992l0,160.015c0,6.619 5.374,11.992 11.992,11.992l73.365,0c6.619,0 11.992,-5.374 11.992,-11.992l0,-160.015Z" style="fill:#20203b;"/><path d="M168.348,38.403l0,159.401c0,8.141 -6.61,14.751 -14.751,14.751l-72.279,0c-8.141,0 -14.751,-6.61 -14.751,-14.751l0,-159.401c0,-8.141 6.61,-14.751 14.751,-14.751l72.279,0c8.141,0 14.751,6.61 14.751,14.751Z" style="fill:#fff;"/><path d="M64.865,67.019l-0.418,0c-0.379,0 -0.686,-0.308 -0.686,-0.686l0,-11.312c0,-0.379 0.308,-0.686 0.686,-0.686l0.418,0l0,-16.376c0,-8.821 7.162,-15.983 15.983,-15.983l73.066,0c8.821,0 15.983,7.162 15.983,15.983l0,16.376l0.433,0c0.455,0 0.824,0.369 0.824,0.824l0,30.908c0,0.455 -0.369,0.824 -0.824,0.824l-0.433,0l0,111.359c0,8.821 -7.162,15.983 -15.983,15.983l-73.066,0c-8.821,0 -15.983,-7.162 -15.983,-15.983l0,-112.627l-0.418,0c-0.379,0 -0.686,-0.308 -0.686,-0.686l0,-11.312c0,-0.379 0.308,-0.686 0.686,-0.686l0.418,0l0,-5.919Zm101.22,-28.922c0,-6.619 -5.374,-11.992 -11.992,-11.992l-73.365,0c-6.619,0 -11.992,5.374 -11.992,11.992l0,160.015c0,6.619 5.374,11.992 11.992,11.992l73.365,0c6.619,0 11.992,-5.374 11.992,-11.992l0,-160.015Z" style="fill:#2a2a46;"/><path d="M133.448,35.549c0,2.544 -2.065,4.609 -4.609,4.609l-22.916,0c-2.544,0 -4.609,-2.065 -4.609,-4.609c0,-2.544 2.065,-4.609 4.609,-4.609l22.916,0c2.544,0 4.609,2.065 4.609,4.609Z" style="fill:#2a2a46;"/></g></svg>